<?xml version="1.0" encoding="iso-8859-1"?>
<!-- Uploaded to: SVG Repo, www.svgrepo.com, Generator: SVG Repo Mixer Tools -->
<!DOCTYPE svg PUBLIC "-//W3C//DTD SVG 1.1//EN" "http://www.w3.org/Graphics/SVG/1.1/DTD/svg11.dtd">
<svg fill="#000000" height="800px" width="800px" version="1.1" id="Capa_1" xmlns="http://www.w3.org/2000/svg" xmlns:xlink="http://www.w3.org/1999/xlink" 
	 viewBox="0 0 59.707 59.707" xml:space="preserve">
<g>
	<path d="M43.287,31.943c-2.296-1.568-4.96-2.438-7.732-3.096c0.003-0.453,0.009-0.904,0.009-1.357
		c-0.003-3.689-0.371-7.355-0.716-11.025c0.001-0.014,0-0.029,0-0.043c0.002-0.225,0.012-0.457,0.025-0.693
		c3.032,0.525,5.947,1.58,8.457,3.006c0.04,0.021,0.085,0.035,0.129,0.053c0.391,0.527,1.559,0.623,1.848-0.137
		c0.865-2.275,2.273-4.975,0.115-7.09c-1.5-1.469-4.551-2.5-7.15-2.902c-0.797-0.281-1.625-0.496-2.465-0.676
		c0.082-1.709-0.071-3.35-0.74-4.746c-0.021-1.074-0.298-2.156-1.395-2.414c-3.665-0.863-7.019-0.924-10.79-0.732
		c-0.613,0.031-0.935,0.424-0.974,0.814c-0.002,0.014-0.005,0.023-0.007,0.035c-0.001,0.016,0,0.029,0,0.045
		C21.88,1.14,21.906,1.306,22.01,1.453c-0.135,0.162-0.211,0.361-0.166,0.604c0.4,2.098,0.921,4.178,1.472,6.254
		c-0.161,0.035-0.323,0.063-0.484,0.1c-3.809,0.877-6.599,2.475-8.395,4.576c-3.216,2.139-5.552,6.107-3.47,9.389
		c0.064,0.102,0.138,0.197,0.207,0.293c0.308,2.629,2.818,4.531,6.187,5.858c0.584,0.232,1.174,0.432,1.764,0.621
		c1.026,0.371,2.05,0.682,2.978,0.949c0.668,0.193,1.34,0.367,2.015,0.533c1.105,0.463,2.244,0.9,3.39,1.334
		c0.473,4.457,1.107,8.914,1.597,13.375c-4.625-0.037-8.194-1.602-12.382-3.1c-1.497-0.533-2.359,1.008-2.781,2.252
		c-1.344,1.93-1.844,3.479-1.209,4.627c-0.304,0.422-0.212,1.027,0.539,1.172c0.474,0.092,0.934,0.186,1.387,0.281
		c0.704,0.271,1.581,0.488,2.663,0.643c3.177,2.039,7.85,2.248,12.399,1.91c0.078,1.779,0.118,3.559,0.065,5.344
		c-0.015,0.492,0.445,0.777,0.985,0.852c1.955,0.271,3.881,0.326,5.856,0.389c0.799,0.025,1.118-0.588,0.942-1.072
		c0.074-0.111,0.123-0.238,0.113-0.4c-0.133-2.014-0.292-4.029-0.462-6.045c3.016-0.627,6.296-2.252,8.711-4.387
		c0.372,0.076,0.787-0.002,1.061-0.326C51.746,41.861,49.434,36.14,43.287,31.943z M17.185,13.271
		c-1.022,0.879-1.88,1.799-2.549,2.771c0.181-0.535,0.402-1.039,0.661-1.5c0.338-0.248,0.691-0.482,1.066-0.678
		c0.483-0.254,0.55-0.686,0.383-1.033c0.77-0.623,1.696-1.135,2.703-1.561C18.638,11.871,17.874,12.545,17.185,13.271z
		 M18.333,15.865c-0.303,0.219-0.561,0.449-0.795,0.684c0.169-0.246,0.339-0.484,0.504-0.705c1.437-1.926,3.861-2.783,6.422-3.287
		c0.046,0.17,0.089,0.34,0.135,0.51C22.266,13.588,20.177,14.529,18.333,15.865z M20.195,18.414c1.333-1.107,3.4-1.91,5.181-2.389
		c0.896,3.607,1.299,7.289,1.647,10.965C22.597,25.244,19.117,22.924,20.195,18.414z M27.413,3.34
		c-0.142-0.457-0.691-0.645-1.177-0.594c0.005-0.082,0.019-0.164,0.027-0.246c0.591,0.031,1.194,0.057,1.792,0.09
		c0.082,1.103,0.199,2.203,0.338,3.301c0.02,0.387,0.029,0.773,0.035,1.158C28.113,5.81,27.794,4.572,27.413,3.34z M16.32,45.679
		c0.021,0.012,0.028,0.029,0.05,0.041c0.309,0.168,0.636,0.314,0.96,0.467c0.04,0.094,0.095,0.189,0.186,0.277
		c0.331,0.32,0.688,0.613,1.056,0.891c-0.819-0.248-1.604-0.576-2.34-1.021C16.259,46.115,16.294,45.898,16.32,45.679z
		 M22.083,49.865c-1.123-0.045-2.245-0.107-3.359-0.164c-0.12-0.006-0.227-0.016-0.34-0.025c-0.445-0.311-0.865-0.646-1.22-1.043
		c1.602,0.588,3.352,0.9,5.139,1.066C22.219,49.746,22.143,49.797,22.083,49.865z M24.835,46.611
		c1.499,0.191,2.971,0.301,4.432,0.314c0.001,0.006,0.001,0.012,0.001,0.016C27.777,46.933,26.285,46.824,24.835,46.611z
		 M28.985,15.427c0.005,0,0.009,0,0.014,0c1.031,2.816,1.425,5.981,1.59,8.928C30.002,21.384,29.45,18.412,28.985,15.427z
		 M32.982,24.564c0.055,1.254,0.12,2.508,0.196,3.762c-0.122-0.023-0.245-0.047-0.367-0.072
		C32.87,27.025,32.928,25.795,32.982,24.564z M32.794,40.767c0.271,0.756,0.531,1.516,0.781,2.277
		c0.075,0.635,0.156,1.285,0.238,1.945c-0.374,0.061-0.748,0.123-1.123,0.164C32.738,43.689,32.772,42.226,32.794,40.767z
		 M33.763,56.888c-0.474-0.889-0.528-2.482-0.422-4.135c0.341-0.043,0.674-0.088,1.01-0.131
		C34.31,54.101,34.137,55.541,33.763,56.888z M35.555,33.228c1.206,0.496,2.358,1.074,3.404,1.814
		c0.408,0.289,0.764,0.602,1.089,0.93c0.101,0.145,0.196,0.293,0.286,0.44c-1.387-1.115-3.009-2.045-4.755-2.881
		C35.571,33.431,35.563,33.33,35.555,33.228z M40.238,44.761c-1.088,0.527-2.291,0.951-3.561,1.287l-0.001-0.025
		c1.564-0.461,3.056-1.172,4.237-2.104C40.713,44.213,40.486,44.492,40.238,44.761z M39.467,42.822
		c-0.802,0.688-1.825,1.186-2.943,1.551c-0.275-2.971-0.542-5.943-0.79-8.918c2.219,1.201,4.141,2.629,5.447,4.525
		C41.022,40.972,40.491,41.943,39.467,42.822z M46.793,43.408c-0.197,0.873-0.583,1.658-1.1,2.367
		c0.896-1.621,1.215-3.438,1.133-5.342C47.031,41.324,47.04,42.308,46.793,43.408z"/>
</g>
</svg>